<svg xmlns="http://www.w3.org/2000/svg" width="1600" height="520" viewBox="0 0 1600 520" role="img" aria-labelledby="title desc"><title id="title">Velocity</title><desc id="desc">Read faster. Understand more.</desc><defs><linearGradient id="bg" x1="0" x2="1"><stop stop-color="#080b12"/><stop offset=".52" stop-color="#121126"/><stop offset="1" stop-color="#07141d"/></linearGradient><linearGradient id="speed" x1="0" x2="1"><stop stop-color="#9f8cff"/><stop offset=".5" stop-color="#53dcff"/><stop offset="1" stop-color="#c9ff4f"/></linearGradient><filter id="glow"><feGaussianBlur stdDeviation="12" result="b"/><feMerge><feMergeNode in="b"/><feMergeNode in="SourceGraphic"/></feMerge></filter></defs><rect width="1600" height="520" rx="28" fill="url(#bg)"/><g opacity=".35" stroke="url(#speed)" stroke-width="2"><path d="M0 100 H520"/><path d="M0 145 H660"/><path d="M0 385 H610"/><path d="M1040 105 H1600"/><path d="M930 400 H1600"/></g><g transform="translate(120 105)" filter="url(#glow)"><circle cx="130" cy="150" r="112" fill="none" stroke="url(#speed)" stroke-width="18" stroke-dasharray="560 145" transform="rotate(140 130 150)"/><path d="M130 150 L205 82" stroke="#c9ff4f" stroke-width="15" stroke-linecap="round"/><circle cx="130" cy="150" r="20" fill="#c9ff4f"/></g><g font-family="Inter,Arial,sans-serif"><text x="430" y="245" fill="#f2f6ff" font-size="124" font-weight="900" letter-spacing="-7">VELOCITY</text><text x="440" y="315" fill="#c9ff4f" font-size="28" font-weight="800" letter-spacing="10">READ FASTER. UNDERSTAND MORE.</text><text x="442" y="375" fill="#95a3be" font-size="22">Fluency · careful reading · strategic skimming · active recall</text></g><g transform="translate(1260 115)" fill="none" stroke="url(#speed)" stroke-width="8" opacity=".9"><path d="M0 45 Q85 10 170 45 V245 Q85 210 0 245Z"/><path d="M170 45 Q255 10 340 45 V245 Q255 210 170 245Z"/><path d="M170 45 V245"/></g></svg>